<svg id="Layer_1" data-name="Layer 1" xmlns="http://www.w3.org/2000/svg" viewBox="0 0 48.91 47.12"><defs><style>.cls-1{fill:#888;}</style></defs><title>email</title><path class="cls-1" d="M28.43,30.77l0,0-.07.06-.1,0a.1.1,0,0,0-.07,0l-.49.26a13.47,13.47,0,0,1-1.37.67,9.3,9.3,0,0,1-3.65.89,3,3,0,0,1-2-.57,3.63,3.63,0,0,1-1.11-2.3,2.85,2.85,0,0,1,0-.42v-.35a3.42,3.42,0,0,1,.33-1.56,3.06,3.06,0,0,1,1.69-1.18A8.21,8.21,0,0,1,24.13,26q.72,0,1.47.06t1.6.19l.5.11.5.11.26.06a.14.14,0,0,1,.1,0l.46.1v3.45a.94.94,0,0,0,0,.29ZM10,29.88a11.34,11.34,0,0,0,.88,4.41,10.86,10.86,0,0,0,2.47,3.58A10.51,10.51,0,0,0,17,40.32a10.88,10.88,0,0,0,4.4.89h6.22a10.81,10.81,0,0,0,6.45-2.08.48.48,0,0,0,.16-.26.5.5,0,0,0-.07-.35.31.31,0,0,0-.29-.19.54.54,0,0,0-.39.1,9.94,9.94,0,0,1-5.86,1.88H21.4A10,10,0,0,1,14,37.25a10.08,10.08,0,0,1-3.09-7.38V23.94A10.08,10.08,0,0,1,14,16.56,10,10,0,0,1,21.4,13.5h6a10.09,10.09,0,0,1,7.36,3.07,10.08,10.08,0,0,1,3.09,7.38v4.15a.35.35,0,0,1,0,.16l-.07.61a10.81,10.81,0,0,1-.59,1.66,4.22,4.22,0,0,1-1.47,1.6,5,5,0,0,1-2.7.67,4.15,4.15,0,0,1-1.73-.35,2.32,2.32,0,0,1-1.11-1.37,1.74,1.74,0,0,1-.1-.32L30,30.42a1,1,0,0,1,0-.29V25.18a.71.71,0,0,0,0-.22,2.76,2.76,0,0,0,0-.3c0-.1,0-.2,0-.3a4.82,4.82,0,0,0-2.25-3.48,5.65,5.65,0,0,0-3-.77,13.57,13.57,0,0,0-4.49.89.39.39,0,0,0-.26.22.41.41,0,0,0,0,.35.39.39,0,0,0,.26.26.51.51,0,0,0,.36,0A13.34,13.34,0,0,1,24.55,21a4.67,4.67,0,0,1,2.54.64,3.62,3.62,0,0,1,1.66,2.17l.13.49a3.69,3.69,0,0,1,.1.49,1.28,1.28,0,0,1,0,.35v.61l-.2-.06h-.13l-.13-.06a.26.26,0,0,1-.16,0l-1-.19a19.69,19.69,0,0,0-3.22-.29,7.93,7.93,0,0,0-3.68.73,3.75,3.75,0,0,0-1.34,1.25,4,4,0,0,0-.49,2c0,.15,0,.29,0,.43s0,.28,0,.43a4.32,4.32,0,0,0,1.43,2.91,4,4,0,0,0,2.54.77,8.43,8.43,0,0,0,2.21-.32,10.48,10.48,0,0,0,2-.73l.75-.34a6.23,6.23,0,0,0,.75-.4l.42-.19.13-.1h0l.29-.22a5.48,5.48,0,0,0,.33.7,3.24,3.24,0,0,0,1.2,1.15,4.18,4.18,0,0,0,2.18.54,5.64,5.64,0,0,0,3.32-1,4.81,4.81,0,0,0,1.43-1.44,4.53,4.53,0,0,0,.39-.75q.16-.4.33-.85l.13-.62q.06-.3.13-.65a1.26,1.26,0,0,1,0-.35V23.94a11.34,11.34,0,0,0-.88-4.41,11.87,11.87,0,0,0-2.44-3.64,11.35,11.35,0,0,0-3.65-2.39,10.76,10.76,0,0,0-4.4-.89h-6a10.76,10.76,0,0,0-4.4.89,10.54,10.54,0,0,0-3.61,2.39,11.13,11.13,0,0,0-2.47,3.64A11.34,11.34,0,0,0,10,23.94Z"/></svg>