<svg id="Layer_1" data-name="Layer 1" xmlns="http://www.w3.org/2000/svg" viewBox="0 0 60.04 57.84"><defs><style>.cls-1{fill:#f06e28;}</style></defs><title>home</title><path class="cls-1" d="M45,48.78H17.58a.62.62,0,0,1-.6-.63V30.71a.61.61,0,1,1,1.21,0V47.53H44.41V30.71a.61.61,0,1,1,1.21,0V48.15a.61.61,0,0,1-.6.63Zm0,0"/><path class="cls-1" d="M45,31.37a.62.62,0,0,1-.41-.17L31.3,18.31,18,31.2a.59.59,0,0,1-.85,0,.63.63,0,0,1,0-.88L30.89,17a.6.6,0,0,1,.84,0l13.7,13.29a.64.64,0,0,1,0,.88.62.62,0,0,1-.44.19Zm0,0"/><path class="cls-1" d="M50.71,28.85a.6.6,0,0,1-.42-.17l-19-18.43-19,18.43a.6.6,0,0,1-.86,0,.64.64,0,0,1,0-.88L30.89,8.94a.6.6,0,0,1,.84,0l19.4,18.83a.64.64,0,0,1,0,.88.62.62,0,0,1-.44.19Zm0,0"/><path class="cls-1" d="M36.14,48.78H26.46a.61.61,0,0,1-.6-.63V34.65a.61.61,0,0,1,.6-.62h9.68a.62.62,0,0,1,.61.62V48.15a.62.62,0,0,1-.61.63Zm-9.07-1.25h8.47V35.28H27.07Zm0,0"/></svg>