<svg id="Layer_1" data-name="Layer 1" xmlns="http://www.w3.org/2000/svg" viewBox="0 0 46.98 45.27"><defs><style>.cls-1{fill:#888;}</style></defs><title>name</title><path class="cls-1" d="M28.48,17.81l-.46,0a4.57,4.57,0,0,1-1.56,3.13,4.76,4.76,0,0,1-3.32,1.31H21.62a4.8,4.8,0,0,1-3.35-1.31,4.41,4.41,0,0,1-1.5-3.13l-.49,0h.49V15.58h0a4.41,4.41,0,0,1,1.5-3.13,4.8,4.8,0,0,1,3.35-1.31h1.53a4.76,4.76,0,0,1,3.32,1.31A4.57,4.57,0,0,1,28,15.58h0v2.24h.91V15.55a5.29,5.29,0,0,0-1.85-3.77,5.53,5.53,0,0,0-3.93-1.53H21.62a5.71,5.71,0,0,0-4,1.53,5.41,5.41,0,0,0-1.82,3.77v2.3a5.49,5.49,0,0,0,1.82,3.77,5.71,5.71,0,0,0,4,1.53h1.53a5.53,5.53,0,0,0,3.93-1.53,5.45,5.45,0,0,0,1.85-3.77v0ZM26.34,35.57a.45.45,0,0,0-.2.35.63.63,0,0,0,.2.32.4.4,0,0,0,.29.1.64.64,0,0,0,.33-.1l2.28-2.3a.39.39,0,0,0,0-.64.41.41,0,0,0-.29-.13.49.49,0,0,0-.36.13Zm0-2.75a.33.33,0,0,0-.2.32.49.49,0,0,0,.2.29.32.32,0,0,0,.29.16.47.47,0,0,0,.33-.16l2.28-2.27a.48.48,0,0,0-.29-.8.5.5,0,0,0-.36.16Zm0-2.55a.33.33,0,0,0-.2.32.78.78,0,0,0,.2.35.4.4,0,0,0,.29.1.64.64,0,0,0,.33-.1l2.28-2.33a.44.44,0,0,0,.16-.29.34.34,0,0,0-.16-.32.45.45,0,0,0-.29-.16.5.5,0,0,0-.36.16Zm5.53-.61a7.66,7.66,0,0,0-.23-1.95A4.39,4.39,0,0,0,31,26.4a1.76,1.76,0,0,0-.55-.51,1.51,1.51,0,0,0-.81-.22.47.47,0,0,0-.33.16.33.33,0,0,0-.13.29.47.47,0,0,0,.13.35.44.44,0,0,0,.33.13l.36.1a.93.93,0,0,1,.42.48,4.42,4.42,0,0,1,.33.8A5.94,5.94,0,0,1,31,29.66v8.4a.34.34,0,0,0,.16.32.34.34,0,0,0,.29.13.44.44,0,0,0,.33-.13.37.37,0,0,0,.13-.32Zm-18.14,0a7.38,7.38,0,0,1,.2-1.69,4.54,4.54,0,0,1,.46-1,1.14,1.14,0,0,1,.33-.26l.33-.1a.44.44,0,0,0,.33-.13.47.47,0,0,0,.13-.35.33.33,0,0,0-.13-.29.47.47,0,0,0-.33-.16,1.34,1.34,0,0,0-.78.22,2.73,2.73,0,0,0-.81.83,7.8,7.8,0,0,0-.39,1,7.64,7.64,0,0,0-.23,1.95v8.4a.44.44,0,0,0,.1.32.56.56,0,0,0,.36.13.45.45,0,0,0,.33-.13.37.37,0,0,0,.13-.32Zm1.79-7.22H11.87v0h-.33l-.46.06a2.91,2.91,0,0,0-1.24.42A2.81,2.81,0,0,0,8.65,24a3.49,3.49,0,0,0-.55,2q0,.83,0,2.33T8,32v.13a6.31,6.31,0,0,0,2,4.76,6.54,6.54,0,0,0,4.84,2H29.85a6.72,6.72,0,0,0,4.88-2,6.42,6.42,0,0,0,2-4.76v-6l-.06-.42q-.07-.35-.15-.65a5.42,5.42,0,0,0-.21-.62,4.07,4.07,0,0,0-1.07-1.34,3.39,3.39,0,0,0-2.08-.61H15.51v.89H33.13a2.63,2.63,0,0,1,1.53.45,3.26,3.26,0,0,1,1,1.53l.07.42.07.26v6.1A5.61,5.61,0,0,1,34,36.24,5.78,5.78,0,0,1,29.85,38H14.92a5.81,5.81,0,0,1-4.23-1.72,5.61,5.61,0,0,1-1.76-4.15V32q.1-4.22.1-6a2.82,2.82,0,0,1,.39-1.5,2.29,2.29,0,0,1,1.37-1l.65-.13a.74.74,0,0,1,.23,0h3.84Z"/></svg>