<svg id="Layer_1" data-name="Layer 1" xmlns="http://www.w3.org/2000/svg" viewBox="0 0 70.92 68.33"><defs><style>.cls-1{fill:#888;}</style></defs><title>PR h</title><path class="cls-1" d="M60.21,19.11H56.11a1.06,1.06,0,0,0-.17-.22l-8.56-8.44a1.08,1.08,0,0,0-.76-.31H18.37A1.06,1.06,0,0,0,17.3,11.2v7.91h-4a1.06,1.06,0,0,0-1.07,1.05v33a1.06,1.06,0,0,0,1.07,1.05H31.42v3.59H27.24a1.06,1.06,0,0,0-1.07,1.05V63.1a1.06,1.06,0,0,0,1.07,1.05H46.3a1.06,1.06,0,0,0,1.07-1.05V58.88a1.06,1.06,0,0,0-1.07-1.05H42.12V54.24H60.21a1.06,1.06,0,0,0,1.07-1.05v-33A1.06,1.06,0,0,0,60.21,19.11ZM47.69,13.75l4.91,4.84H47.69Zm-2.14-1.49v7.38a1.06,1.06,0,0,0,1.07,1.05h7.49v7.6a1.07,1.07,0,0,0,2.14,0V21.22h2.89V46H56.25V36.68a1.07,1.07,0,0,0-2.14,0V46H19.44V43.69H25.9a1.06,1.06,0,1,0,0-2.11H19.44V12.26Zm-28.25,9V46H14.41V21.22ZM45.23,62H28.31V59.94H45.23V62ZM40,57.83H33.56V54.24H40Zm-25.58-5.7v-4H59.14v4Z"/><path class="cls-1" d="M55.18,33.61a1.09,1.09,0,0,0,.76-.31,1,1,0,0,0,0-1.49,1.08,1.08,0,0,0-1.51,0,1,1,0,0,0,0,1.49A1.09,1.09,0,0,0,55.18,33.61Z"/><path class="cls-1" d="M36.67,49.07a1.09,1.09,0,0,0-.76.31,1,1,0,0,0,0,1.49,1.08,1.08,0,0,0,1.51,0,1,1,0,0,0,0-1.49A1.08,1.08,0,0,0,36.67,49.07Z"/><path class="cls-1" d="M26.39,36l9.85,5.6a1.08,1.08,0,0,0,1.07,0L47.16,36a1.05,1.05,0,0,0,.54-.91V23.85a1.05,1.05,0,0,0-.54-.91l-9.85-5.6a1.08,1.08,0,0,0-1.07,0l-9.85,5.6a1.05,1.05,0,0,0-.54.91V35.05A1.05,1.05,0,0,0,26.39,36ZM36.77,23.17a1.06,1.06,0,0,0,1.07-1.05v-2l6.64,3.78-6.64,3.78V26.23a1.07,1.07,0,0,0-2.14,0v1.39l-6.64-3.78,6.64-3.78v2A1.06,1.06,0,0,0,36.77,23.17Zm8.78,10.05L44,32.36a1.08,1.08,0,0,0-1.46.39,1,1,0,0,0,.39,1.44l1.53.87-6.64,3.78V31.28l1.73,1A1.08,1.08,0,0,0,41,31.88a1,1,0,0,0-.39-1.44l-1.73-1,6.64-3.78ZM34.63,29.45l-1.25.71A1,1,0,0,0,33,31.6a1.08,1.08,0,0,0,1.46.39l1.25-.71v7.55l-6.64-3.78,2.09-1.19a1,1,0,0,0,.39-1.44A1.08,1.08,0,0,0,30.09,32L28,33.23V25.68Z"/><path class="cls-1" d="M29.56,41.58a1.08,1.08,0,0,0-.76.31,1,1,0,0,0,0,1.49,1.08,1.08,0,0,0,1.51,0,1,1,0,0,0,0-1.49A1.09,1.09,0,0,0,29.56,41.58Z"/></svg>