<svg id="Layer_1" data-name="Layer 1" xmlns="http://www.w3.org/2000/svg" viewBox="0 0 56.09 54.04"><defs><style>.cls-1{fill:#888;}</style></defs><title>PR m</title><path class="cls-1" d="M48.72,11.41H45.28a.9.9,0,0,0-.14-.18L38,4.09a.9.9,0,0,0-.63-.26H13.65a.89.89,0,0,0-.9.89v6.69H9.43a.89.89,0,0,0-.9.89V40.22a.89.89,0,0,0,.9.89H24.59v3h-3.5a.89.89,0,0,0-.9.89V48.6a.89.89,0,0,0,.9.89h16a.89.89,0,0,0,.9-.89V45a.89.89,0,0,0-.9-.89h-3.5v-3H48.72a.89.89,0,0,0,.9-.89V12.3A.89.89,0,0,0,48.72,11.41ZM38.22,6.87,42.34,11H38.22ZM36.43,5.61v6.24a.89.89,0,0,0,.9.89H43.6v6.42a.9.9,0,0,0,1.79,0v-6h2.42v21H45.4V26.26a.9.9,0,0,0-1.79,0v7.89H14.55v-2H20a.89.89,0,1,0,0-1.78H14.55V5.61ZM12.75,13.19v21H10.33v-21ZM36.16,47.71H22V45.92H36.16v1.78Zm-4.4-3.57H26.38v-3h5.38ZM10.33,39.32V35.93H47.82v3.39Z"/><path class="cls-1" d="M44.5,23.66a.91.91,0,0,0,.63-.26.89.89,0,0,0,0-1.26.9.9,0,0,0-1.27,0,.89.89,0,0,0,0,1.26A.91.91,0,0,0,44.5,23.66Z"/><path class="cls-1" d="M29,36.74a.89.89,0,0,0-.9.89.89.89,0,0,0,.26.63.9.9,0,0,0,1.27,0,.89.89,0,0,0,0-1.26A.9.9,0,0,0,29,36.74Z"/><path class="cls-1" d="M20.37,25.66l8.25,4.74a.9.9,0,0,0,.9,0l8.25-4.74a.89.89,0,0,0,.45-.77V15.41a.89.89,0,0,0-.45-.77L29.52,9.9a.9.9,0,0,0-.9,0l-8.25,4.74a.89.89,0,0,0-.45.77v9.47A.89.89,0,0,0,20.37,25.66Zm8.7-10.82a.89.89,0,0,0,.9-.89V12.22l5.56,3.19L30,18.6V17.43a.9.9,0,0,0-1.79,0V18.6l-5.56-3.19,5.56-3.19v1.73A.89.89,0,0,0,29.07,14.84Zm7.35,8.5-1.28-.74a.9.9,0,0,0-1.23.33.89.89,0,0,0,.33,1.22l1.28.74L30,28.08V21.69l1.45.83a.89.89,0,1,0,.9-1.54l-1.45-.83L36.43,17Zm-9.15-3.19-1,.6a.89.89,0,0,0,.9,1.54l1-.6v6.39l-5.56-3.19,1.75-1a.89.89,0,0,0,.33-1.22.9.9,0,0,0-1.23-.33l-1.75,1V17Z"/><path class="cls-1" d="M23,30.41a.9.9,0,1,0,.63.26A.9.9,0,0,0,23,30.41Z"/></svg>