<svg id="Layer_1" data-name="Layer 1" xmlns="http://www.w3.org/2000/svg" viewBox="0 0 56.09 54.04"><defs><style>.cls-1{fill:#888;}</style></defs><title>SE m</title><path class="cls-1" d="M22.62,40.88a12.77,12.77,0,0,1-1.48-22.22,1,1,0,0,0,.28-1.37A1,1,0,0,0,20,17l-.6.42-2-1.63a2.7,2.7,0,0,0-3.78.33l-1.12,1.32a2.66,2.66,0,0,0,.33,3.75l2,1.64a14.66,14.66,0,0,0-1.09,3H11.22A2.68,2.68,0,0,0,8.54,28.5v1.73a2.68,2.68,0,0,0,2.68,2.66H13.8a14.63,14.63,0,0,0,1.1,3l-2,1.65a2.66,2.66,0,0,0-.33,3.75l1.12,1.32a2.7,2.7,0,0,0,3.78.33l2-1.66a14.89,14.89,0,0,0,2.29,1.37,1,1,0,0,0,1.33-.46,1,1,0,0,0-.46-1.32Zm-11.4-10a.69.69,0,0,1-.7-.69V28.5a.69.69,0,0,1,.7-.69h2.23a14.78,14.78,0,0,0,0,3.11Zm3-11.24a.69.69,0,0,1-.09-1l1.12-1.32a.7.7,0,0,1,1-.09l1.7,1.41a14.79,14.79,0,0,0-2,2.38Zm2,21.75a.7.7,0,0,1-1-.09L14.11,40a.69.69,0,0,1,.09-1l1.72-1.43a14.9,14.9,0,0,0,2,2.38ZM45.26,25.84H42.69a14.6,14.6,0,0,0-1.09-3l2-1.64a2.66,2.66,0,0,0,.33-3.75l-1.12-1.32A2.7,2.7,0,0,0,39,15.79l-2,1.63q-.39-.28-.8-.54a1,1,0,0,0-1.37.3,1,1,0,0,0,.3,1.36A12.77,12.77,0,0,1,33.64,41a1,1,0,0,0-.48,1.31,1,1,0,0,0,1.32.48A14.78,14.78,0,0,0,37,41.28l2,1.66a2.67,2.67,0,0,0,1.72.62h.24a2.67,2.67,0,0,0,1.82-.94l1.12-1.32a2.66,2.66,0,0,0-.33-3.75l-2-1.66a14.77,14.77,0,0,0,1.1-3h2.59a2.68,2.68,0,0,0,2.68-2.66V28.5a2.68,2.68,0,0,0-2.68-2.66ZM42.28,39a.69.69,0,0,1,.09,1l-1.12,1.32a.7.7,0,0,1-1,.09L38.55,40a15,15,0,0,0,2-2.38Zm-1.69-18a14.75,14.75,0,0,0-2-2.38l1.69-1.41a.7.7,0,0,1,1,.09l1.12,1.32a.69.69,0,0,1-.09,1ZM46,30.23a.69.69,0,0,1-.7.69H43a14.59,14.59,0,0,0,.09-1.57A14.91,14.91,0,0,0,43,27.81h2.23a.69.69,0,0,1,.7.69Zm-11-.88a6.6,6.6,0,0,0-3.16-5.64,1,1,0,0,1-.32-1.36A1,1,0,0,1,32.81,22a8.58,8.58,0,0,1,2,12.89,1,1,0,0,1-1.4.11,1,1,0,0,1-.12-1.39,6.62,6.62,0,0,0,1.58-4.29ZM23.25,33.77a1,1,0,0,1-.08,1.39,1,1,0,0,1-1.4-.08,8.58,8.58,0,0,1,2.39-13.34,1,1,0,0,1,1.34.41,1,1,0,0,1-.41,1.33,6.62,6.62,0,0,0-1.85,10.28Zm6-1.24a1,1,0,0,0,0-.18V20.12l3.6-2.07a1,1,0,0,0,.5-.85V12.5a1,1,0,0,0-.5-.85l-2-1.18a1,1,0,0,0-1.36.36,1,1,0,0,0,.36,1.35l1.55.89v3.56l-3.11,1.78-3.11-1.78V13.07l1.55-.89A1,1,0,0,0,27,10.83a1,1,0,0,0-1.36-.36l-2,1.18a1,1,0,0,0-.5.85v4.7a1,1,0,0,0,.5.85l3.6,2.07V32.34a1,1,0,0,0,0,.18,3.28,3.28,0,0,0-2.32,3.13V46.11a2.29,2.29,0,0,0,2.3,2.28h2a2.29,2.29,0,0,0,2.3-2.28V35.65a3.28,3.28,0,0,0-2.32-3.13Zm.34,13.59a.32.32,0,0,1-.31.31h-2a.32.32,0,0,1-.31-.31V35.65a1.31,1.31,0,0,1,2.62,0Zm0,0"/></svg>