<svg id="Layer_1" data-name="Layer 1" xmlns="http://www.w3.org/2000/svg" viewBox="0 0 57.45 55.35"><defs><style>.cls-1{fill:#f06e28;}</style></defs><title>search</title><path class="cls-1" d="M47.21,46.5,35.84,34.83a15.71,15.71,0,0,0,4.69-11.19,16.06,16.06,0,0,0-32.12,0,16.09,16.09,0,0,0,26.3,12.21L46.1,47.54a.76.76,0,0,0,.55.23.78.78,0,0,0,.53-.21.75.75,0,0,0,0-1.07ZM24.48,38A14.34,14.34,0,1,1,39,23.64,14.45,14.45,0,0,1,24.48,38Zm0,0"/><path class="cls-1" d="M23.41,11.48l0,1.42a12.57,12.57,0,0,1,9.49,4.68L34,16.7A14,14,0,0,0,23.41,11.48Z"/><path class="cls-1" d="M35.82,19.7A13.87,13.87,0,0,0,35,18.19l-1.23.73a12.34,12.34,0,0,1,.72,1.36Z"/></svg>