<svg id="Layer_1" data-name="Layer 1" xmlns="http://www.w3.org/2000/svg" viewBox="0 0 68.48 65.97"><defs><style>.cls-1{fill:#888;}</style></defs><title>ST h</title><path class="cls-1" d="M27.14,37.57a3.07,3.07,0,0,0-2.74,1.72,3.7,3.7,0,0,0-1.1-.17A3.85,3.85,0,0,0,19.47,43,.77.77,0,1,0,21,43a2.31,2.31,0,0,1,2.3-2.32,2.25,2.25,0,0,1,1.17.34.76.76,0,0,0,.72,0,.77.77,0,0,0,.43-.59,1.52,1.52,0,0,1,3,.08.77.77,0,0,0,1.41.35,3.81,3.81,0,0,1,6.42,0,.77.77,0,0,0,1.41-.35,1.52,1.52,0,0,1,3-.08.77.77,0,0,0,.43.59.76.76,0,0,0,.72,0,2.25,2.25,0,0,1,1.17-.34A2.31,2.31,0,0,1,45.55,43a.77.77,0,1,0,1.53,0,3.86,3.86,0,0,0-3.83-3.87,3.69,3.69,0,0,0-1.1.17,3.07,3.07,0,0,0-2.74-1.72A3,3,0,0,0,36.86,39a5.33,5.33,0,0,0-7.17,0,3,3,0,0,0-2.55-1.38Zm0,0"/><path class="cls-1" d="M36.34,19a3.07,3.07,0,1,0-3.07,3.09A3.08,3.08,0,0,0,36.34,19Zm-3.07,1.55A1.55,1.55,0,1,1,34.81,19a1.54,1.54,0,0,1-1.53,1.55Zm0,0"/><path class="cls-1" d="M32.51,29.06v6.19a.77.77,0,1,0,1.53,0V29.06a.77.77,0,1,0-1.53,0Zm0,0"/><path class="cls-1" d="M12.57,46.85a.77.77,0,0,0,.77-.77V22.88a2.54,2.54,0,0,1,2.3-2.32h9.2a.77.77,0,0,0,0-1.55h-9.2a4.06,4.06,0,0,0-3.83,3.87v23.2a.77.77,0,0,0,.77.77Zm0,0"/><path class="cls-1" d="M55.51,45.3h-.77V22.88A4.06,4.06,0,0,0,50.91,19h-9.2a.77.77,0,0,0,0,1.55h9.2a2.54,2.54,0,0,1,2.3,2.32v23.2a.77.77,0,0,0,.77.77h.77v2.32a2.54,2.54,0,0,1-2.3,2.32H14.11A2.56,2.56,0,0,1,12,49.94H52.45a.77.77,0,0,0,0-1.55H11a.77.77,0,0,0-.77.77A4.06,4.06,0,0,0,14.11,53H52.45a4.06,4.06,0,0,0,3.83-3.87V46.08a.77.77,0,0,0-.77-.77Zm0,0"/><path class="cls-1" d="M24.07,33.7a.77.77,0,0,0,.77.77h2.3v.77a.77.77,0,1,0,1.53,0v-.77h1.53a.77.77,0,0,0,0-1.55h-4.6v-.77a5.77,5.77,0,0,1,1.59-4.25,5.09,5.09,0,0,0,1.47-3.49V16.69A6.05,6.05,0,0,1,30,12.54l3.25-3.93,3.29,4a6.07,6.07,0,0,1,1.31,4.1v7.73a5.09,5.09,0,0,0,1.47,3.49,5.77,5.77,0,0,1,1.59,4.25v.77h-4.6a.77.77,0,0,0,0,1.55h1.53v.77a.77.77,0,1,0,1.53,0v-.77h2.3a.77.77,0,0,0,.77-.77V32.16a7.32,7.32,0,0,0-1.94-5.22,3.63,3.63,0,0,1-1.13-2.51V16.69a7.57,7.57,0,0,0-1.71-5.14L33.87,6.91a.79.79,0,0,0-1.18,0L28.9,11.5a7.56,7.56,0,0,0-1.76,5.19v7.73A3.63,3.63,0,0,1,26,26.93a7.32,7.32,0,0,0-1.94,5.22Zm0,0"/><path class="cls-1" d="M25.61,22.88a.77.77,0,0,0-.77-.77h-6.9c-1,0-3.07,1-3.07,2.32V46.08a.77.77,0,0,0,.77.77H50.91a.77.77,0,0,0,.77-.77V24.42a2.43,2.43,0,0,0-2.3-2.32H41.71a.77.77,0,0,0,0,1.55h7.67a.9.9,0,0,1,.77.77V45.3H16.41V24.46a2.42,2.42,0,0,1,1.54-.81h6.9a.77.77,0,0,0,.77-.77Zm0,0"/></svg>