<svg id="Layer_1" data-name="Layer 1" xmlns="http://www.w3.org/2000/svg" viewBox="0 0 45.28 43.63"><defs><style>.cls-1{fill:#888;}</style></defs><title>txt</title><path class="cls-1" d="M14.64,33.24a.53.53,0,0,0-.32.1.54.54,0,0,0,0,.7.53.53,0,0,0,.32.1H20.8a.63.63,0,0,0,.32-.1.54.54,0,0,0,0-.7.63.63,0,0,0-.32-.1Zm0-2.94a.47.47,0,0,0-.32.16.33.33,0,0,0-.13.29.43.43,0,0,0,.13.32.44.44,0,0,0,.32.13h18.9a.44.44,0,0,0,.32-.13.43.43,0,0,0,.13-.32.33.33,0,0,0-.13-.29.47.47,0,0,0-.32-.16Zm0-3a.38.38,0,0,0-.32.19.3.3,0,0,0-.13.26.47.47,0,0,0,.13.35.44.44,0,0,0,.32.13h18.9a.44.44,0,0,0,.32-.13.47.47,0,0,0,.13-.35.3.3,0,0,0-.13-.26.44.44,0,0,0-.32-.19Zm0-2.91a.44.44,0,0,0-.32.13.43.43,0,0,0-.13.32.33.33,0,0,0,.13.29.47.47,0,0,0,.32.16h18.9a.47.47,0,0,0,.32-.16.34.34,0,0,0,.13-.29.43.43,0,0,0-.13-.32.45.45,0,0,0-.32-.13Zm0-3.07a.38.38,0,0,0-.32.19.37.37,0,0,0-.13.32.39.39,0,0,0,.13.29.47.47,0,0,0,.32.16h18.9a.47.47,0,0,0,.32-.16A.39.39,0,0,0,34,21.8a.37.37,0,0,0-.13-.32.44.44,0,0,0-.32-.19Zm0-2.87a.44.44,0,0,0-.32.13.47.47,0,0,0-.13.35.39.39,0,0,0,.13.29.44.44,0,0,0,.32.13h18.9a.44.44,0,0,0,.32-.13A.39.39,0,0,0,34,18.9a.47.47,0,0,0-.13-.35.44.44,0,0,0-.32-.13Zm12.74-2.94a.56.56,0,0,0-.36.13.61.61,0,0,0-.1.32.51.51,0,0,0,.1.32.56.56,0,0,0,.36.13h6.16a.44.44,0,0,0,.32-.13.46.46,0,0,0,0-.64.44.44,0,0,0-.32-.13Zm3.21-3a.44.44,0,0,0-.32.13.47.47,0,0,0-.13.35.43.43,0,0,0,.13.32.44.44,0,0,0,.32.13h2.95a.44.44,0,0,0,.32-.13A.43.43,0,0,0,34,13a.47.47,0,0,0-.13-.35.44.44,0,0,0-.32-.13ZM37,33.36a3.94,3.94,0,0,1-1.17,2.87A4,4,0,0,1,33,37.45H14.38a4,4,0,0,1-2.92-1.21,3.9,3.9,0,0,1-1.23-2.87V14.65a3.86,3.86,0,0,1,1.23-2.84,4,4,0,0,1,2.92-1.18H33a4,4,0,0,1,4.08,4ZM14.38,9.73a5,5,0,0,0-3.6,1.44,4.71,4.71,0,0,0-1.46,3.48V33.36a4.85,4.85,0,0,0,1.46,3.54,5,5,0,0,0,3.6,1.44H33a4.89,4.89,0,0,0,3.57-1.44A4.79,4.79,0,0,0,38,33.36V14.65a4.66,4.66,0,0,0-1.49-3.48A4.89,4.89,0,0,0,33,9.73Z"/></svg>