<svg id="Layer_1" data-name="Layer 1" xmlns="http://www.w3.org/2000/svg" viewBox="0 0 61.32 59.08"><defs><style>.cls-1{fill:#888;}</style></defs><title>US m</title><path class="cls-1" d="M30.39,36a1.61,1.61,0,0,0,2.42,1.9l5.87-4.05a9,9,0,0,0,1.19.08,9.61,9.61,0,1,0-7.35-3.45Zm1-11.65a8.59,8.59,0,1,1,7.28,8.42l-.21,0L32.2,37a.55.55,0,0,1-.82-.65l2.36-6.12L33.52,30a8.5,8.5,0,0,1-2.18-5.68Zm0,0"/><path class="cls-1" d="M33.77,26.26a6.39,6.39,0,0,1,8-8,.53.53,0,1,0,.32-1,7.46,7.46,0,0,0-9.35,9.35.53.53,0,0,0,.51.37l.16,0a.53.53,0,0,0,.35-.67Zm0,0"/><path class="cls-1" d="M37.94,30.43a.53.53,0,1,0-.32,1A7.46,7.46,0,0,0,47,22.09a.53.53,0,0,0-1,.32,6.39,6.39,0,0,1-8,8Zm0,0"/><path class="cls-1" d="M48.91,42.44a.53.53,0,0,0-.53.53V44a1.6,1.6,0,1,1-3.2,0V41.9a2.66,2.66,0,1,0-5.32,0V44a1.6,1.6,0,1,1-3.2,0V41.9a2.66,2.66,0,1,0-5.32,0V44a1.6,1.6,0,0,1-1.6,1.6H25a1.6,1.6,0,0,1-1.6-1.6V43.5h2.13a2.67,2.67,0,0,0,2.66-2.66V36.58a2.67,2.67,0,0,0-2.66-2.66H23.37a.55.55,0,0,1-.55-.55V24.89a.55.55,0,0,1,.55-.56h2.11a2.67,2.67,0,0,0,2.66-2.66V17.41a2.67,2.67,0,0,0-2.66-2.66H22.29a4.8,4.8,0,0,0-4.79,4.79V38.71a4.8,4.8,0,0,0,4.79,4.79V44A2.67,2.67,0,0,0,25,46.7h4.79A2.67,2.67,0,0,0,32.41,44V41.9a1.6,1.6,0,0,1,3.2,0V44a2.66,2.66,0,1,0,5.32,0V41.9a1.6,1.6,0,1,1,3.2,0V44a2.66,2.66,0,1,0,5.33,0V43a.53.53,0,0,0-.53-.53ZM18.56,38.71V19.54a3.73,3.73,0,0,1,3.73-3.73h3.19a1.6,1.6,0,0,1,1.6,1.6v4.26a1.6,1.6,0,0,1-1.6,1.6V17.94a.53.53,0,1,0-1.07,0v5.33h-1a1.62,1.62,0,0,0-1.62,1.62v8.48A1.62,1.62,0,0,0,23.37,35h2.11a1.6,1.6,0,0,1,1.6,1.6v4.26a1.6,1.6,0,0,1-1.6,1.6V37.11a.53.53,0,1,0-1.07,0v5.33H22.29a3.73,3.73,0,0,1-3.73-3.73Zm0,0"/></svg>