<svg id="Layer_1" data-name="Layer 1" xmlns="http://www.w3.org/2000/svg" viewBox="0 0 67.25 64.8"><defs><style>.cls-1{fill:#888;}</style></defs><title>AV h</title><path class="cls-1" d="M26.62,12.9h4.46v1.28H26.62Z"/><path class="cls-1" d="M38.07,12.9h3.82v1.28H38.07Z"/><path class="cls-1" d="M52.71,12.9H48.89v1.28h3.18v9.62H16.44V14.18h3.18V12.9H15.8a.6.6,0,0,0-.64.64V50.11a.6.6,0,0,0,.64.64h36.9a.6.6,0,0,0,.64-.64V13.55a.6.6,0,0,0-.64-.64Zm-.64,36.57H16.44V25.09H52.07Zm0,0"/><path class="cls-1" d="M34.26,21.24h.64a1.88,1.88,0,0,0,1.91-1.92V14.18a1.88,1.88,0,0,0-1.91-1.92h-.64a1.88,1.88,0,0,0-1.91,1.92v5.13a1.88,1.88,0,0,0,1.91,1.92Zm-.64-7.06a.6.6,0,0,1,.64-.64h.64a.6.6,0,0,1,.64.64v5.13a.61.61,0,0,1-.64.64h-.64a.61.61,0,0,1-.64-.64Zm0,0"/><path class="cls-1" d="M45.07,21.24h.63a1.88,1.88,0,0,0,1.91-1.92V14.18a1.88,1.88,0,0,0-1.91-1.92h-.63a1.88,1.88,0,0,0-1.91,1.92v5.13a1.88,1.88,0,0,0,1.91,1.92Zm-.64-7.06a.6.6,0,0,1,.64-.64h.63a.6.6,0,0,1,.64.64v5.13a.6.6,0,0,1-.64.64h-.63a.6.6,0,0,1-.64-.64Zm0,0"/><path class="cls-1" d="M22.8,21.24h.63a1.88,1.88,0,0,0,1.91-1.92V14.18a1.88,1.88,0,0,0-1.91-1.92H22.8a1.88,1.88,0,0,0-1.91,1.92v5.13a1.88,1.88,0,0,0,1.91,1.92Zm-.64-7.06a.6.6,0,0,1,.64-.64h.63a.6.6,0,0,1,.64.64v5.13a.6.6,0,0,1-.64.64H22.8a.6.6,0,0,1-.64-.64Zm0,0"/><path class="cls-1" d="M19.62,32.79h4.45a.6.6,0,0,0,.64-.64V28.3a.6.6,0,0,0-.64-.64H19.62a.6.6,0,0,0-.64.64v3.85a.6.6,0,0,0,.64.64Zm.63-3.85h3.18v2.57H20.25Zm0,0"/><path class="cls-1" d="M27.89,32.79h4.46a.6.6,0,0,0,.63-.64V28.3a.6.6,0,0,0-.63-.64H27.89a.61.61,0,0,0-.64.64v3.85a.61.61,0,0,0,.64.64Zm.64-3.85h3.18v2.57H28.53Zm0,0"/><path class="cls-1" d="M40,32.15h1.27V28.3a.6.6,0,0,0-.64-.64H36.16v1.28H40Zm0,0"/><path class="cls-1" d="M44.44,32.79h4.45a.6.6,0,0,0,.64-.64V28.3a.6.6,0,0,0-.64-.64H44.44a.6.6,0,0,0-.64.64v3.85a.6.6,0,0,0,.64.64Zm.64-3.85h3.18v2.57H45.07Zm0,0"/><path class="cls-1" d="M24.07,34.72H19.62V36h3.81v3.21h1.27V35.36a.6.6,0,0,0-.64-.64Zm0,0"/><path class="cls-1" d="M27.89,39.85h4.46a.6.6,0,0,0,.63-.64V35.36a.6.6,0,0,0-.63-.64H27.89a.6.6,0,0,0-.64.64v3.85a.6.6,0,0,0,.64.64ZM28.53,36h3.18v2.57H28.53Zm0,0"/><path class="cls-1" d="M36.16,39.85h4.46a.6.6,0,0,0,.64-.64V35.36a.6.6,0,0,0-.64-.64H36.16a.6.6,0,0,0-.63.64v3.85a.6.6,0,0,0,.63.64ZM36.8,36H40v2.57H36.8Zm0,0"/><path class="cls-1" d="M44.44,39.85h4.45a.6.6,0,0,0,.64-.64V35.36a.6.6,0,0,0-.64-.64H44.44a.6.6,0,0,0-.64.64v3.85a.6.6,0,0,0,.64.64ZM45.07,36h3.18v2.57H45.07Zm0,0"/><path class="cls-1" d="M19.62,46.9h4.45a.6.6,0,0,0,.64-.64V42.42a.6.6,0,0,0-.64-.64H19.62a.6.6,0,0,0-.64.64v3.85a.6.6,0,0,0,.64.64Zm.63-3.85h3.18v2.57H20.25Zm0,0"/><path class="cls-1" d="M32.35,41.77H27.89v1.28h3.82v3.21H33V42.42a.6.6,0,0,0-.63-.64Zm0,0"/><path class="cls-1" d="M36.16,46.9h4.46a.6.6,0,0,0,.64-.64V42.42a.6.6,0,0,0-.64-.64H36.16a.6.6,0,0,0-.63.64v3.85a.6.6,0,0,0,.63.64Zm.64-3.85H40v2.57H36.8Zm0,0"/><path class="cls-1" d="M48.89,41.77H44.44v1.28h3.82v3.21h1.27V42.42a.6.6,0,0,0-.64-.64Zm0,0"/></svg>