<svg id="Layer_1" data-name="Layer 1" xmlns="http://www.w3.org/2000/svg" viewBox="0 0 62.21 59.94"><defs><style>.cls-1{fill:#888;}</style></defs><title>EV m</title><path class="cls-1" d="M26.74,17.46h3.82v1.1H26.74Z"/><path class="cls-1" d="M36.55,17.46h3.27v1.1H36.55Z"/><path class="cls-1" d="M49.09,17.46H45.82v1.1h2.72V26.8H18V18.55h2.72v-1.1H17.48a.52.52,0,0,0-.55.55V49.34a.52.52,0,0,0,.55.55h31.6a.52.52,0,0,0,.55-.55V18a.52.52,0,0,0-.55-.55Zm-.55,31.33H18V27.9H48.54Zm0,0"/><path class="cls-1" d="M33.28,24.6h.55A1.61,1.61,0,0,0,35.46,23v-4.4a1.61,1.61,0,0,0-1.63-1.65h-.55a1.61,1.61,0,0,0-1.63,1.65V23a1.61,1.61,0,0,0,1.63,1.65Zm-.55-6a.52.52,0,0,1,.55-.55h.55a.52.52,0,0,1,.55.55V23a.52.52,0,0,1-.55.55h-.55a.52.52,0,0,1-.55-.55Zm0,0"/><path class="cls-1" d="M42.55,24.6h.54A1.61,1.61,0,0,0,44.73,23v-4.4a1.61,1.61,0,0,0-1.64-1.65h-.54a1.61,1.61,0,0,0-1.64,1.65V23a1.61,1.61,0,0,0,1.64,1.65Zm-.55-6a.52.52,0,0,1,.55-.55h.54a.52.52,0,0,1,.55.55V23a.52.52,0,0,1-.55.55h-.54A.52.52,0,0,1,42,23Zm0,0"/><path class="cls-1" d="M23.48,24.6H24A1.61,1.61,0,0,0,25.66,23v-4.4A1.61,1.61,0,0,0,24,16.91h-.54a1.61,1.61,0,0,0-1.64,1.65V23a1.61,1.61,0,0,0,1.64,1.65Zm-.55-6a.52.52,0,0,1,.55-.55H24a.52.52,0,0,1,.55.55V23a.52.52,0,0,1-.55.55h-.54a.52.52,0,0,1-.55-.55Zm0,0"/><path class="cls-1" d="M20.75,34.5h3.81a.52.52,0,0,0,.55-.55v-3.3a.52.52,0,0,0-.55-.55H20.75a.52.52,0,0,0-.55.55v3.3a.52.52,0,0,0,.55.55Zm.54-3.3H24v2.2H21.29Zm0,0"/><path class="cls-1" d="M27.84,34.5h3.82a.52.52,0,0,0,.54-.55v-3.3a.52.52,0,0,0-.54-.55H27.84a.52.52,0,0,0-.55.55v3.3a.52.52,0,0,0,.55.55Zm.55-3.3h2.72v2.2H28.38Zm0,0"/><path class="cls-1" d="M38.19,33.95h1.09v-3.3a.52.52,0,0,0-.55-.55H34.92v1.1h3.27Zm0,0"/><path class="cls-1" d="M42,34.5h3.81a.52.52,0,0,0,.55-.55v-3.3a.52.52,0,0,0-.55-.55H42a.52.52,0,0,0-.55.55v3.3a.52.52,0,0,0,.55.55Zm.55-3.3h2.72v2.2H42.55Zm0,0"/><path class="cls-1" d="M24.56,36.14H20.75v1.1H24V40h1.09v-3.3a.52.52,0,0,0-.55-.55Zm0,0"/><path class="cls-1" d="M27.84,40.54h3.82a.52.52,0,0,0,.54-.55v-3.3a.52.52,0,0,0-.54-.55H27.84a.52.52,0,0,0-.55.55V40a.52.52,0,0,0,.55.55Zm.55-3.3h2.72v2.2H28.38Zm0,0"/><path class="cls-1" d="M34.92,40.54h3.82a.52.52,0,0,0,.55-.55v-3.3a.52.52,0,0,0-.55-.55H34.92a.52.52,0,0,0-.54.55V40a.52.52,0,0,0,.54.55Zm.55-3.3h2.72v2.2H35.46Zm0,0"/><path class="cls-1" d="M42,40.54h3.81a.52.52,0,0,0,.55-.55v-3.3a.52.52,0,0,0-.55-.55H42a.52.52,0,0,0-.55.55V40a.52.52,0,0,0,.55.55Zm.55-3.3h2.72v2.2H42.55Zm0,0"/><path class="cls-1" d="M20.75,46.59h3.81a.52.52,0,0,0,.55-.55v-3.3a.52.52,0,0,0-.55-.55H20.75a.52.52,0,0,0-.55.55V46a.52.52,0,0,0,.55.55Zm.54-3.3H24v2.2H21.29Zm0,0"/><path class="cls-1" d="M31.65,42.19H27.84v1.1h3.27V46h1.09v-3.3a.52.52,0,0,0-.54-.55Zm0,0"/><path class="cls-1" d="M34.92,46.59h3.82a.52.52,0,0,0,.55-.55v-3.3a.52.52,0,0,0-.55-.55H34.92a.52.52,0,0,0-.54.55V46a.52.52,0,0,0,.54.55Zm.55-3.3h2.72v2.2H35.46Zm0,0"/><path class="cls-1" d="M45.82,42.19H42v1.1h3.27V46h1.09v-3.3a.52.52,0,0,0-.55-.55Zm0,0"/></svg>