<svg id="Layer_1" data-name="Layer 1" xmlns="http://www.w3.org/2000/svg" viewBox="0 0 46.47 44.77"><defs><style>.cls-1{fill:#888;}</style></defs><title>phone</title><path class="cls-1" d="M35.71,20.88a.38.38,0,0,0-.26.26.28.28,0,0,0,0,.29,11.94,11.94,0,0,1,.42,2.39V29A11.68,11.68,0,0,1,24.12,39.82h-3.5A11.68,11.68,0,0,1,8.94,29V23.82a11.28,11.28,0,0,1,3.69-7.66,11.29,11.29,0,0,1,8-3.16h3.5a11.7,11.7,0,0,1,4.3.83.5.5,0,0,0,.35,0,.94.94,0,0,0,.22-.29.34.34,0,0,0,0-.35.39.39,0,0,0-.22-.22,12.72,12.72,0,0,0-4.65-.86h-3.5A12.38,12.38,0,0,0,12,15.52,12,12,0,0,0,8,23.79V29A11.94,11.94,0,0,0,12,37.3a12.38,12.38,0,0,0,8.63,3.42h3.5a12.16,12.16,0,0,0,8.63-3.42,12,12,0,0,0,4-8.27V23.79a11.45,11.45,0,0,0-.48-2.55.42.42,0,0,0-.19-.32.75.75,0,0,0-.35,0ZM20.85,28.33a1.21,1.21,0,0,0,.55-.13l.42-.22.48-.19.48-.27a2.17,2.17,0,0,0,.39-.24,17.67,17.67,0,0,0,2.52-2,27.53,27.53,0,0,0,2.46-2.67,10.51,10.51,0,0,0,1.7-2.68,1.68,1.68,0,0,0,.22-.8,1.74,1.74,0,0,0-.26-.86q-.32-.57-.83-1.37a1.12,1.12,0,0,1-.1-.45A1,1,0,0,1,29,15.9l1.19-1.15q.64-.61,1.35-1.31a.65.65,0,0,1,.48-.19.64.64,0,0,1,.29.06l.91.65q.46.34,1,.75a1.4,1.4,0,0,1,.61,1.09l0,.1,0,.13v.7l-.13.61a11,11,0,0,1-1.51,3.54,32.42,32.42,0,0,1-5,6.1,30.47,30.47,0,0,1-4.72,3.93,14.59,14.59,0,0,1-3.76,1.92,1.15,1.15,0,0,1-.27.1l-.37.06-.35.06-.39.06h-.83a2.07,2.07,0,0,1-1.32-.73q-.42-.54-.71-1L15,30.69a.67.67,0,0,1,.06-.86l1.22-1.25,1.25-1.25a.49.49,0,0,1,.26-.13.52.52,0,0,1,.32-.1.48.48,0,0,1,.35.13l.93.57.83.42a1.82,1.82,0,0,0,.58.1Zm-5.14-.42-1.25,1.28A1.51,1.51,0,0,0,14,30.31a1.78,1.78,0,0,0,.26.89l1.25,1.72A2.72,2.72,0,0,0,17.42,34l.06,0,.16.06h.93l.35-.13.35-.06.8-.19a16.93,16.93,0,0,0,3.95-2,28.76,28.76,0,0,0,2.39-1.8q1.2-1,2.49-2.22a41.45,41.45,0,0,0,3-3.26,28.37,28.37,0,0,0,2.17-3,11.49,11.49,0,0,0,1.64-3.86l.06-.32.06-.29v-1l0-.13,0-.1a2.78,2.78,0,0,0-1-1.63q-1.12-.86-1.93-1.44a1.34,1.34,0,0,0-.8-.26,1.75,1.75,0,0,0-1.12.45l-2.5,2.52A1.55,1.55,0,0,0,28,16.45a1.83,1.83,0,0,0,.26.93q.48.77.77,1.31a.9.9,0,0,1,.13.45.85.85,0,0,1-.13.42A10.7,10.7,0,0,1,27.43,22a23.61,23.61,0,0,1-4.78,4.47,3.17,3.17,0,0,1-.77.48l-.45.19L21,27.4l-.16,0a.51.51,0,0,1-.22-.06,3.41,3.41,0,0,1-.43-.19L19.85,27l-.47-.26a3.53,3.53,0,0,1-.37-.26,1.41,1.41,0,0,0-.87-.29,1.85,1.85,0,0,0-1.19.51Z"/></svg>