<svg id="Layer_1" data-name="Layer 1" xmlns="http://www.w3.org/2000/svg" viewBox="0 0 69.7 67.15"><defs><style>.cls-1{fill:#888;}</style></defs><title>SE h</title><path class="cls-1" d="M28.7,50.41A14.9,14.9,0,0,1,27,24.48a1.15,1.15,0,0,0,.33-1.6,1.16,1.16,0,0,0-1.61-.32L25,23l-2.29-1.91a3.15,3.15,0,0,0-4.41.38L17,23.06a3.1,3.1,0,0,0,.39,4.38l2.29,1.91a17.09,17.09,0,0,0-1.28,3.51h-3A3.12,3.12,0,0,0,12.25,36v2a3.12,3.12,0,0,0,3.13,3.11h3a17.07,17.07,0,0,0,1.28,3.49l-2.31,1.93A3.1,3.1,0,0,0,17,50.9l1.3,1.54a3.15,3.15,0,0,0,4.41.38L25,50.89a17.38,17.38,0,0,0,2.67,1.6A1.16,1.16,0,0,0,29.24,52a1.15,1.15,0,0,0-.54-1.54ZM15.38,38.79a.81.81,0,0,1-.81-.81V36a.81.81,0,0,1,.81-.81H18a17.23,17.23,0,0,0,0,3.63Zm3.48-13.11a.81.81,0,0,1-.1-1.14L20.06,23a.82.82,0,0,1,1.14-.1l2,1.65a17.26,17.26,0,0,0-2.35,2.78ZM21.2,51.06a.82.82,0,0,1-1.14-.1l-1.3-1.54a.81.81,0,0,1,.1-1.14l2-1.67a17.39,17.39,0,0,0,2.35,2.78Zm33.93-18.2h-3a17,17,0,0,0-1.28-3.51l2.29-1.91a3.1,3.1,0,0,0,.39-4.38l-1.3-1.54a3.15,3.15,0,0,0-4.41-.38L45.53,23q-.45-.33-.93-.63a1.16,1.16,0,0,0-1.6.35,1.15,1.15,0,0,0,.35,1.59,14.91,14.91,0,0,1-1.78,26.18A1.15,1.15,0,0,0,41,52.06a1.16,1.16,0,0,0,1.54.56,17.26,17.26,0,0,0,3-1.73l2.32,1.94a3.11,3.11,0,0,0,2,.73h.28a3.12,3.12,0,0,0,2.13-1.1l1.3-1.54a3.1,3.1,0,0,0-.39-4.38l-2.32-1.93a17.24,17.24,0,0,0,1.29-3.48h3A3.12,3.12,0,0,0,58.26,38V36a3.12,3.12,0,0,0-3.13-3.11ZM51.65,48.28a.8.8,0,0,1,.1,1.14L50.45,51a.82.82,0,0,1-1.14.1l-2-1.68a17.45,17.45,0,0,0,2.35-2.78Zm-2-21a17.22,17.22,0,0,0-2.35-2.78l2-1.65a.82.82,0,0,1,1.14.1l1.3,1.54a.81.81,0,0,1-.1,1.14ZM55.94,38a.81.81,0,0,1-.81.81H52.52a17,17,0,0,0,.1-1.84,17.39,17.39,0,0,0-.09-1.79h2.6a.81.81,0,0,1,.81.81ZM43.06,37a7.7,7.7,0,0,0-3.69-6.59A1.15,1.15,0,0,1,39,28.78a1.16,1.16,0,0,1,1.6-.37,10,10,0,0,1,2.38,15,1.16,1.16,0,0,1-1.63.13A1.15,1.15,0,0,1,41.21,42a7.72,7.72,0,0,0,1.85-5ZM29.43,42.12a1.15,1.15,0,0,1-.09,1.63,1.16,1.16,0,0,1-1.64-.09A10,10,0,0,1,30.5,28.08a1.16,1.16,0,0,1,1.57.47,1.15,1.15,0,0,1-.48,1.56,7.72,7.72,0,0,0-2.16,12Zm7-1.45a1.17,1.17,0,0,0,0-.21V26.19l4.21-2.41a1.15,1.15,0,0,0,.58-1V17.3a1.15,1.15,0,0,0-.58-1l-2.39-1.37a1.16,1.16,0,0,0-1.58.42,1.15,1.15,0,0,0,.42,1.57l1.81,1v4.16L35.26,24.2l-3.63-2.08V18l1.81-1a1.15,1.15,0,0,0,.42-1.57,1.16,1.16,0,0,0-1.58-.42L29.89,16.3a1.15,1.15,0,0,0-.58,1v5.49a1.15,1.15,0,0,0,.58,1l4.21,2.41V40.45a1.14,1.14,0,0,0,0,.21,3.83,3.83,0,0,0-2.71,3.65v12.2a2.68,2.68,0,0,0,2.68,2.67h2.33a2.68,2.68,0,0,0,2.68-2.67V44.32a3.83,3.83,0,0,0-2.71-3.65Zm.39,15.86a.37.37,0,0,1-.37.36H34.09a.37.37,0,0,1-.36-.36V44.32a1.53,1.53,0,0,1,3.06,0Zm0,0"/></svg>