<svg id="Layer_1" data-name="Layer 1" xmlns="http://www.w3.org/2000/svg" viewBox="0 0 46.47 44.77"><defs><style>.cls-1{fill:#888;}</style></defs><title>title</title><path class="cls-1" d="M20.68,20.81V16.5a.34.34,0,0,0-.16-.32.33.33,0,0,0-.28-.13.37.37,0,0,0-.32.13.38.38,0,0,0-.13.32v4.31H15.54a.43.43,0,0,0-.32.13.47.47,0,0,0,0,.64.42.42,0,0,0,.32.13H19.8V26a.48.48,0,0,0,.13.35.43.43,0,0,0,.32.1.38.38,0,0,0,.28-.1.49.49,0,0,0,.16-.35V21.71h4.26a.43.43,0,0,0,.32-.13.47.47,0,0,0,0-.64.43.43,0,0,0-.32-.13Zm9.09,12.61-.09.06h0v0a3.88,3.88,0,0,1-2.62,1H14.15a3.77,3.77,0,0,1-2.78-1.18,3.89,3.89,0,0,1-1.17-2.84V12a3.86,3.86,0,0,1,1.17-2.81A3.77,3.77,0,0,1,14.15,8H27a3.68,3.68,0,0,1,1.83.48,37.27,37.27,0,0,0,.13.06l.19.16.24.19a1.14,1.14,0,0,0,.24.16,6.61,6.61,0,0,1,.44.54.89.89,0,0,1,.16.45V32a.47.47,0,0,0,.09.29l.13.1a4.06,4.06,0,0,1-.41.7.9.9,0,0,0-.16.19ZM33.85,7.85a2,2,0,0,1,1.36.54,2.15,2.15,0,0,1,.6,1.41v1.82H31.13V9.8a2.08,2.08,0,0,1,.63-1.41,2,2,0,0,1,1.36-.54Zm.09,21.08a.72.72,0,0,0,0-.22V12.57h1.83v18.3Zm-.85-.19v.06l-2,2.08V12.57h2Zm.38,3.38-1,1.05L31.32,32l2.15-2.3L35.65,32l-1.14,1.18Zm0,2.14-.41-.42.41-.45.44.45ZM36.72,9.73a3,3,0,0,0-.92-1.95,2.8,2.8,0,0,0-2-.83h-.73a2.71,2.71,0,0,0-1.58.48,3,3,0,0,0-1,1.25,3,3,0,0,0-.66-.61l-.41-.29-.13-.1,0,0A4.87,4.87,0,0,0,27,7.08H14.15a4.63,4.63,0,0,0-3.41,1.44A4.73,4.73,0,0,0,9.32,12V30.52A4.77,4.77,0,0,0,10.74,34a4.58,4.58,0,0,0,3.41,1.47H27a4.5,4.5,0,0,0,3.19-1.28h0l.13-.16a1.24,1.24,0,0,0,.21-.19l.14-.19a4.56,4.56,0,0,0,.38-.57l.79.83.19.26,1.07,1.05.32.35,1.67-1.72,1.45-1.56a.4.4,0,0,0,.13-.29Z"/></svg>