<svg id="Layer_1" data-name="Layer 1" xmlns="http://www.w3.org/2000/svg" viewBox="0 0 68.48 65.97"><defs><style>.cls-1{fill:#888;}</style></defs><title>US h</title><path class="cls-1" d="M30.87,42.78A1.88,1.88,0,0,0,33.7,45l6.85-4.73a10.5,10.5,0,0,0,1.39.1,11.22,11.22,0,1,0-8.58-4ZM32,29.18A10,10,0,1,1,40.48,39l-.24,0L33,44a.64.64,0,0,1-1-.75l2.75-7.14-.25-.28A9.92,9.92,0,0,1,32,29.18Zm0,0"/><path class="cls-1" d="M34.82,31.42a7.46,7.46,0,0,1,9.36-9.36.62.62,0,1,0,.37-1.19A8.7,8.7,0,0,0,33.63,31.8a.62.62,0,0,0,.59.43.61.61,0,0,0,.19,0,.62.62,0,0,0,.41-.78Zm0,0"/><path class="cls-1" d="M39.69,36.29a.62.62,0,1,0-.37,1.19A8.7,8.7,0,0,0,50.24,26.56a.62.62,0,0,0-1.19.37,7.46,7.46,0,0,1-9.36,9.36Zm0,0"/><path class="cls-1" d="M52.51,50.31a.62.62,0,0,0-.62.62v1.24a1.87,1.87,0,0,1-3.73,0V49.69a3.11,3.11,0,0,0-6.22,0v2.49a1.87,1.87,0,0,1-3.73,0V49.69a3.11,3.11,0,0,0-6.22,0v2.49A1.87,1.87,0,0,1,30.12,54h-5.6a1.87,1.87,0,0,1-1.87-1.86v-.62h2.49a3.11,3.11,0,0,0,3.11-3.11v-5a3.11,3.11,0,0,0-3.11-3.11H22.68a.65.65,0,0,1-.65-.64v-9.9a.65.65,0,0,1,.65-.65h2.46a3.11,3.11,0,0,0,3.11-3.11v-5A3.11,3.11,0,0,0,25.15,18H21.41a5.6,5.6,0,0,0-5.6,5.59V46a5.6,5.6,0,0,0,5.6,5.59v.62a3.11,3.11,0,0,0,3.11,3.11h5.6a3.11,3.11,0,0,0,3.11-3.11V49.69a1.87,1.87,0,0,1,3.73,0v2.49a3.11,3.11,0,0,0,6.22,0V49.69a1.87,1.87,0,0,1,3.73,0v2.49a3.11,3.11,0,0,0,6.22,0V50.93a.62.62,0,0,0-.62-.62ZM17.06,46V23.58a4.36,4.36,0,0,1,4.35-4.35h3.73A1.87,1.87,0,0,1,27,21.1v5a1.87,1.87,0,0,1-1.87,1.86V21.72a.62.62,0,0,0-1.24,0v6.22H22.68a1.89,1.89,0,0,0-1.89,1.89v9.9a1.89,1.89,0,0,0,1.89,1.89h2.46A1.87,1.87,0,0,1,27,43.47v5a1.87,1.87,0,0,1-1.87,1.86V44.09a.62.62,0,0,0-1.24,0v6.22H21.41A4.36,4.36,0,0,1,17.06,46Zm0,0"/></svg>